<mxfile host="Electron" agent="Mozilla/5.0 (Windows NT 10.0; Win64; x64) AppleWebKit/537.36 (KHTML, like Gecko) draw.io/24.7.8 Chrome/128.0.6613.36 Electron/32.0.1 Safari/537.36" version="24.7.8">
  <diagram id="C5RBs43oDa-KdzZeNtuy" name="Page-1">
    <mxGraphModel dx="1735" dy="1031" grid="1" gridSize="10" guides="1" tooltips="1" connect="1" arrows="1" fold="1" page="1" pageScale="1" pageWidth="827" pageHeight="1169" math="0" shadow="0">
      <root>
        <mxCell id="WIyWlLk6GJQsqaUBKTNV-0" />
        <mxCell id="WIyWlLk6GJQsqaUBKTNV-1" parent="WIyWlLk6GJQsqaUBKTNV-0" />
        <mxCell id="vUJ9j087HEOIc25sZ5Dg-0" value="Pool" style="swimlane;fontStyle=1;align=center;verticalAlign=top;childLayout=stackLayout;horizontal=1;startSize=26;horizontalStack=0;resizeParent=1;resizeParentMax=0;resizeLast=0;collapsible=1;marginBottom=0;whiteSpace=wrap;html=1;" vertex="1" parent="WIyWlLk6GJQsqaUBKTNV-1">
          <mxGeometry x="160" y="310" width="200" height="432" as="geometry" />
        </mxCell>
        <mxCell id="vUJ9j087HEOIc25sZ5Dg-30" value="- Tirreur[] tirreurs" style="text;strokeColor=none;fillColor=none;align=left;verticalAlign=top;spacingLeft=4;spacingRight=4;overflow=hidden;rotatable=0;points=[[0,0.5],[1,0.5]];portConstraint=eastwest;whiteSpace=wrap;html=1;" vertex="1" parent="vUJ9j087HEOIc25sZ5Dg-0">
          <mxGeometry y="26" width="200" height="26" as="geometry" />
        </mxCell>
        <mxCell id="vUJ9j087HEOIc25sZ5Dg-31" value="- Arbitre[] arbitres" style="text;strokeColor=none;fillColor=none;align=left;verticalAlign=top;spacingLeft=4;spacingRight=4;overflow=hidden;rotatable=0;points=[[0,0.5],[1,0.5]];portConstraint=eastwest;whiteSpace=wrap;html=1;" vertex="1" parent="vUJ9j087HEOIc25sZ5Dg-0">
          <mxGeometry y="52" width="200" height="26" as="geometry" />
        </mxCell>
        <mxCell id="vUJ9j087HEOIc25sZ5Dg-1" value="- Match[] matchs" style="text;strokeColor=none;fillColor=none;align=left;verticalAlign=top;spacingLeft=4;spacingRight=4;overflow=hidden;rotatable=0;points=[[0,0.5],[1,0.5]];portConstraint=eastwest;whiteSpace=wrap;html=1;" vertex="1" parent="vUJ9j087HEOIc25sZ5Dg-0">
          <mxGeometry y="78" width="200" height="26" as="geometry" />
        </mxCell>
        <mxCell id="vUJ9j087HEOIc25sZ5Dg-60" value="- Performance[] performances" style="text;strokeColor=none;fillColor=none;align=left;verticalAlign=top;spacingLeft=4;spacingRight=4;overflow=hidden;rotatable=0;points=[[0,0.5],[1,0.5]];portConstraint=eastwest;whiteSpace=wrap;html=1;" vertex="1" parent="vUJ9j087HEOIc25sZ5Dg-0">
          <mxGeometry y="104" width="200" height="26" as="geometry" />
        </mxCell>
        <mxCell id="vUJ9j087HEOIc25sZ5Dg-41" value="- bool classer" style="text;strokeColor=none;fillColor=none;align=left;verticalAlign=top;spacingLeft=4;spacingRight=4;overflow=hidden;rotatable=0;points=[[0,0.5],[1,0.5]];portConstraint=eastwest;whiteSpace=wrap;html=1;" vertex="1" parent="vUJ9j087HEOIc25sZ5Dg-0">
          <mxGeometry y="130" width="200" height="26" as="geometry" />
        </mxCell>
        <mxCell id="vUJ9j087HEOIc25sZ5Dg-2" value="" style="line;strokeWidth=1;fillColor=none;align=left;verticalAlign=middle;spacingTop=-1;spacingLeft=3;spacingRight=3;rotatable=0;labelPosition=right;points=[];portConstraint=eastwest;strokeColor=inherit;" vertex="1" parent="vUJ9j087HEOIc25sZ5Dg-0">
          <mxGeometry y="156" width="200" height="8" as="geometry" />
        </mxCell>
        <mxCell id="vUJ9j087HEOIc25sZ5Dg-3" value="+ Tirreur[] Tirreurs {get}" style="text;strokeColor=none;fillColor=none;align=left;verticalAlign=top;spacingLeft=4;spacingRight=4;overflow=hidden;rotatable=0;points=[[0,0.5],[1,0.5]];portConstraint=eastwest;whiteSpace=wrap;html=1;" vertex="1" parent="vUJ9j087HEOIc25sZ5Dg-0">
          <mxGeometry y="164" width="200" height="26" as="geometry" />
        </mxCell>
        <mxCell id="vUJ9j087HEOIc25sZ5Dg-42" value="+ Arbitre[] Arbitres {get}" style="text;strokeColor=none;fillColor=none;align=left;verticalAlign=top;spacingLeft=4;spacingRight=4;overflow=hidden;rotatable=0;points=[[0,0.5],[1,0.5]];portConstraint=eastwest;whiteSpace=wrap;html=1;" vertex="1" parent="vUJ9j087HEOIc25sZ5Dg-0">
          <mxGeometry y="190" width="200" height="26" as="geometry" />
        </mxCell>
        <mxCell id="vUJ9j087HEOIc25sZ5Dg-43" value="+ Match[] Matchs {get}" style="text;strokeColor=none;fillColor=none;align=left;verticalAlign=top;spacingLeft=4;spacingRight=4;overflow=hidden;rotatable=0;points=[[0,0.5],[1,0.5]];portConstraint=eastwest;whiteSpace=wrap;html=1;" vertex="1" parent="vUJ9j087HEOIc25sZ5Dg-0">
          <mxGeometry y="216" width="200" height="26" as="geometry" />
        </mxCell>
        <mxCell id="vUJ9j087HEOIc25sZ5Dg-61" value="- Performance[] performances {get}" style="text;strokeColor=none;fillColor=none;align=left;verticalAlign=top;spacingLeft=4;spacingRight=4;overflow=hidden;rotatable=0;points=[[0,0.5],[1,0.5]];portConstraint=eastwest;whiteSpace=wrap;html=1;" vertex="1" parent="vUJ9j087HEOIc25sZ5Dg-0">
          <mxGeometry y="242" width="200" height="26" as="geometry" />
        </mxCell>
        <mxCell id="vUJ9j087HEOIc25sZ5Dg-44" value="+ bool Classer {get}" style="text;strokeColor=none;fillColor=none;align=left;verticalAlign=top;spacingLeft=4;spacingRight=4;overflow=hidden;rotatable=0;points=[[0,0.5],[1,0.5]];portConstraint=eastwest;whiteSpace=wrap;html=1;" vertex="1" parent="vUJ9j087HEOIc25sZ5Dg-0">
          <mxGeometry y="268" width="200" height="26" as="geometry" />
        </mxCell>
        <mxCell id="vUJ9j087HEOIc25sZ5Dg-4" value="" style="line;strokeWidth=1;fillColor=none;align=left;verticalAlign=middle;spacingTop=-1;spacingLeft=3;spacingRight=3;rotatable=0;labelPosition=right;points=[];portConstraint=eastwest;strokeColor=inherit;" vertex="1" parent="vUJ9j087HEOIc25sZ5Dg-0">
          <mxGeometry y="294" width="200" height="8" as="geometry" />
        </mxCell>
        <mxCell id="vUJ9j087HEOIc25sZ5Dg-68" value="+ O ToString():string" style="text;strokeColor=none;fillColor=none;align=left;verticalAlign=top;spacingLeft=4;spacingRight=4;overflow=hidden;rotatable=0;points=[[0,0.5],[1,0.5]];portConstraint=eastwest;whiteSpace=wrap;html=1;" vertex="1" parent="vUJ9j087HEOIc25sZ5Dg-0">
          <mxGeometry y="302" width="200" height="26" as="geometry" />
        </mxCell>
        <mxCell id="vUJ9j087HEOIc25sZ5Dg-5" value="+ CreationDesMatch()" style="text;strokeColor=none;fillColor=none;align=left;verticalAlign=top;spacingLeft=4;spacingRight=4;overflow=hidden;rotatable=0;points=[[0,0.5],[1,0.5]];portConstraint=eastwest;whiteSpace=wrap;html=1;" vertex="1" parent="vUJ9j087HEOIc25sZ5Dg-0">
          <mxGeometry y="328" width="200" height="26" as="geometry" />
        </mxCell>
        <mxCell id="vUJ9j087HEOIc25sZ5Dg-32" value="+ AffichageDesMatchs(): string" style="text;strokeColor=none;fillColor=none;align=left;verticalAlign=top;spacingLeft=4;spacingRight=4;overflow=hidden;rotatable=0;points=[[0,0.5],[1,0.5]];portConstraint=eastwest;whiteSpace=wrap;html=1;" vertex="1" parent="vUJ9j087HEOIc25sZ5Dg-0">
          <mxGeometry y="354" width="200" height="26" as="geometry" />
        </mxCell>
        <mxCell id="vUJ9j087HEOIc25sZ5Dg-39" value="+ CalculDesPerformances(): string" style="text;strokeColor=none;fillColor=none;align=left;verticalAlign=top;spacingLeft=4;spacingRight=4;overflow=hidden;rotatable=0;points=[[0,0.5],[1,0.5]];portConstraint=eastwest;whiteSpace=wrap;html=1;" vertex="1" parent="vUJ9j087HEOIc25sZ5Dg-0">
          <mxGeometry y="380" width="200" height="26" as="geometry" />
        </mxCell>
        <mxCell id="vUJ9j087HEOIc25sZ5Dg-40" value="+ ClassementDesTirreur()" style="text;strokeColor=none;fillColor=none;align=left;verticalAlign=top;spacingLeft=4;spacingRight=4;overflow=hidden;rotatable=0;points=[[0,0.5],[1,0.5]];portConstraint=eastwest;whiteSpace=wrap;html=1;" vertex="1" parent="vUJ9j087HEOIc25sZ5Dg-0">
          <mxGeometry y="406" width="200" height="26" as="geometry" />
        </mxCell>
        <mxCell id="vUJ9j087HEOIc25sZ5Dg-6" value="Person" style="swimlane;fontStyle=1;align=center;verticalAlign=top;childLayout=stackLayout;horizontal=1;startSize=26;horizontalStack=0;resizeParent=1;resizeParentMax=0;resizeLast=0;collapsible=1;marginBottom=0;whiteSpace=wrap;html=1;" vertex="1" parent="WIyWlLk6GJQsqaUBKTNV-1">
          <mxGeometry x="340" width="160" height="120" as="geometry" />
        </mxCell>
        <mxCell id="vUJ9j087HEOIc25sZ5Dg-7" value="- nom string" style="text;strokeColor=none;fillColor=none;align=left;verticalAlign=top;spacingLeft=4;spacingRight=4;overflow=hidden;rotatable=0;points=[[0,0.5],[1,0.5]];portConstraint=eastwest;whiteSpace=wrap;html=1;" vertex="1" parent="vUJ9j087HEOIc25sZ5Dg-6">
          <mxGeometry y="26" width="160" height="26" as="geometry" />
        </mxCell>
        <mxCell id="vUJ9j087HEOIc25sZ5Dg-8" value="" style="line;strokeWidth=1;fillColor=none;align=left;verticalAlign=middle;spacingTop=-1;spacingLeft=3;spacingRight=3;rotatable=0;labelPosition=right;points=[];portConstraint=eastwest;strokeColor=inherit;" vertex="1" parent="vUJ9j087HEOIc25sZ5Dg-6">
          <mxGeometry y="52" width="160" height="8" as="geometry" />
        </mxCell>
        <mxCell id="vUJ9j087HEOIc25sZ5Dg-103" value="+ nom string {get}" style="text;strokeColor=none;fillColor=none;align=left;verticalAlign=top;spacingLeft=4;spacingRight=4;overflow=hidden;rotatable=0;points=[[0,0.5],[1,0.5]];portConstraint=eastwest;whiteSpace=wrap;html=1;" vertex="1" parent="vUJ9j087HEOIc25sZ5Dg-6">
          <mxGeometry y="60" width="160" height="26" as="geometry" />
        </mxCell>
        <mxCell id="vUJ9j087HEOIc25sZ5Dg-10" value="" style="line;strokeWidth=1;fillColor=none;align=left;verticalAlign=middle;spacingTop=-1;spacingLeft=3;spacingRight=3;rotatable=0;labelPosition=right;points=[];portConstraint=eastwest;strokeColor=inherit;" vertex="1" parent="vUJ9j087HEOIc25sZ5Dg-6">
          <mxGeometry y="86" width="160" height="8" as="geometry" />
        </mxCell>
        <mxCell id="vUJ9j087HEOIc25sZ5Dg-104" value="+ O ToString():string" style="text;strokeColor=none;fillColor=none;align=left;verticalAlign=top;spacingLeft=4;spacingRight=4;overflow=hidden;rotatable=0;points=[[0,0.5],[1,0.5]];portConstraint=eastwest;whiteSpace=wrap;html=1;" vertex="1" parent="vUJ9j087HEOIc25sZ5Dg-6">
          <mxGeometry y="94" width="160" height="26" as="geometry" />
        </mxCell>
        <mxCell id="vUJ9j087HEOIc25sZ5Dg-107" style="edgeStyle=orthogonalEdgeStyle;rounded=0;orthogonalLoop=1;jettySize=auto;html=1;exitX=0.5;exitY=0;exitDx=0;exitDy=0;" edge="1" parent="WIyWlLk6GJQsqaUBKTNV-1" source="vUJ9j087HEOIc25sZ5Dg-12" target="vUJ9j087HEOIc25sZ5Dg-6">
          <mxGeometry relative="1" as="geometry" />
        </mxCell>
        <mxCell id="vUJ9j087HEOIc25sZ5Dg-12" value="Arbitre" style="swimlane;fontStyle=1;align=center;verticalAlign=top;childLayout=stackLayout;horizontal=1;startSize=26;horizontalStack=0;resizeParent=1;resizeParentMax=0;resizeLast=0;collapsible=1;marginBottom=0;whiteSpace=wrap;html=1;fillColor=#60a917;fontColor=#ffffff;strokeColor=#2D7600;" vertex="1" parent="WIyWlLk6GJQsqaUBKTNV-1">
          <mxGeometry x="200" y="159" width="160" height="120" as="geometry" />
        </mxCell>
        <mxCell id="vUJ9j087HEOIc25sZ5Dg-13" value="- ushort nbMatchArbitrer" style="text;strokeColor=none;fillColor=none;align=left;verticalAlign=top;spacingLeft=4;spacingRight=4;overflow=hidden;rotatable=0;points=[[0,0.5],[1,0.5]];portConstraint=eastwest;whiteSpace=wrap;html=1;" vertex="1" parent="vUJ9j087HEOIc25sZ5Dg-12">
          <mxGeometry y="26" width="160" height="26" as="geometry" />
        </mxCell>
        <mxCell id="vUJ9j087HEOIc25sZ5Dg-14" value="" style="line;strokeWidth=1;fillColor=none;align=left;verticalAlign=middle;spacingTop=-1;spacingLeft=3;spacingRight=3;rotatable=0;labelPosition=right;points=[];portConstraint=eastwest;strokeColor=inherit;" vertex="1" parent="vUJ9j087HEOIc25sZ5Dg-12">
          <mxGeometry y="52" width="160" height="8" as="geometry" />
        </mxCell>
        <mxCell id="vUJ9j087HEOIc25sZ5Dg-105" value="+ ushort NbMatchArbitrer" style="text;strokeColor=none;fillColor=none;align=left;verticalAlign=top;spacingLeft=4;spacingRight=4;overflow=hidden;rotatable=0;points=[[0,0.5],[1,0.5]];portConstraint=eastwest;whiteSpace=wrap;html=1;" vertex="1" parent="vUJ9j087HEOIc25sZ5Dg-12">
          <mxGeometry y="60" width="160" height="26" as="geometry" />
        </mxCell>
        <mxCell id="vUJ9j087HEOIc25sZ5Dg-16" value="" style="line;strokeWidth=1;fillColor=none;align=left;verticalAlign=middle;spacingTop=-1;spacingLeft=3;spacingRight=3;rotatable=0;labelPosition=right;points=[];portConstraint=eastwest;strokeColor=inherit;" vertex="1" parent="vUJ9j087HEOIc25sZ5Dg-12">
          <mxGeometry y="86" width="160" height="8" as="geometry" />
        </mxCell>
        <mxCell id="vUJ9j087HEOIc25sZ5Dg-70" value="+ O ToString():string" style="text;strokeColor=none;fillColor=none;align=left;verticalAlign=top;spacingLeft=4;spacingRight=4;overflow=hidden;rotatable=0;points=[[0,0.5],[1,0.5]];portConstraint=eastwest;whiteSpace=wrap;html=1;" vertex="1" parent="vUJ9j087HEOIc25sZ5Dg-12">
          <mxGeometry y="94" width="160" height="26" as="geometry" />
        </mxCell>
        <mxCell id="vUJ9j087HEOIc25sZ5Dg-106" style="edgeStyle=orthogonalEdgeStyle;rounded=0;orthogonalLoop=1;jettySize=auto;html=1;exitX=0.5;exitY=0;exitDx=0;exitDy=0;" edge="1" parent="WIyWlLk6GJQsqaUBKTNV-1" source="vUJ9j087HEOIc25sZ5Dg-18" target="vUJ9j087HEOIc25sZ5Dg-6">
          <mxGeometry relative="1" as="geometry" />
        </mxCell>
        <mxCell id="vUJ9j087HEOIc25sZ5Dg-18" value="Tirreur" style="swimlane;fontStyle=1;align=center;verticalAlign=top;childLayout=stackLayout;horizontal=1;startSize=26;horizontalStack=0;resizeParent=1;resizeParentMax=0;resizeLast=0;collapsible=1;marginBottom=0;whiteSpace=wrap;html=1;fillColor=#FF0000;" vertex="1" parent="WIyWlLk6GJQsqaUBKTNV-1">
          <mxGeometry x="427" y="159" width="173" height="146" as="geometry" />
        </mxCell>
        <mxCell id="vUJ9j087HEOIc25sZ5Dg-19" value="- string equipe" style="text;strokeColor=none;fillColor=none;align=left;verticalAlign=top;spacingLeft=4;spacingRight=4;overflow=hidden;rotatable=0;points=[[0,0.5],[1,0.5]];portConstraint=eastwest;whiteSpace=wrap;html=1;" vertex="1" parent="vUJ9j087HEOIc25sZ5Dg-18">
          <mxGeometry y="26" width="173" height="26" as="geometry" />
        </mxCell>
        <mxCell id="vUJ9j087HEOIc25sZ5Dg-20" value="" style="line;strokeWidth=1;fillColor=none;align=left;verticalAlign=middle;spacingTop=-1;spacingLeft=3;spacingRight=3;rotatable=0;labelPosition=right;points=[];portConstraint=eastwest;strokeColor=inherit;" vertex="1" parent="vUJ9j087HEOIc25sZ5Dg-18">
          <mxGeometry y="52" width="173" height="8" as="geometry" />
        </mxCell>
        <mxCell id="vUJ9j087HEOIc25sZ5Dg-21" value="+ string Equipe {get}" style="text;strokeColor=none;fillColor=none;align=left;verticalAlign=top;spacingLeft=4;spacingRight=4;overflow=hidden;rotatable=0;points=[[0,0.5],[1,0.5]];portConstraint=eastwest;whiteSpace=wrap;html=1;" vertex="1" parent="vUJ9j087HEOIc25sZ5Dg-18">
          <mxGeometry y="60" width="173" height="26" as="geometry" />
        </mxCell>
        <mxCell id="vUJ9j087HEOIc25sZ5Dg-22" value="" style="line;strokeWidth=1;fillColor=none;align=left;verticalAlign=middle;spacingTop=-1;spacingLeft=3;spacingRight=3;rotatable=0;labelPosition=right;points=[];portConstraint=eastwest;strokeColor=inherit;" vertex="1" parent="vUJ9j087HEOIc25sZ5Dg-18">
          <mxGeometry y="86" width="173" height="8" as="geometry" />
        </mxCell>
        <mxCell id="vUJ9j087HEOIc25sZ5Dg-71" value="+ O ToString():string" style="text;strokeColor=none;fillColor=none;align=left;verticalAlign=top;spacingLeft=4;spacingRight=4;overflow=hidden;rotatable=0;points=[[0,0.5],[1,0.5]];portConstraint=eastwest;whiteSpace=wrap;html=1;" vertex="1" parent="vUJ9j087HEOIc25sZ5Dg-18">
          <mxGeometry y="94" width="173" height="26" as="geometry" />
        </mxCell>
        <mxCell id="vUJ9j087HEOIc25sZ5Dg-117" value="+ Abandonner(Match match)" style="text;strokeColor=none;fillColor=none;align=left;verticalAlign=top;spacingLeft=4;spacingRight=4;overflow=hidden;rotatable=0;points=[[0,0.5],[1,0.5]];portConstraint=eastwest;whiteSpace=wrap;html=1;" vertex="1" parent="vUJ9j087HEOIc25sZ5Dg-18">
          <mxGeometry y="120" width="173" height="26" as="geometry" />
        </mxCell>
        <mxCell id="vUJ9j087HEOIc25sZ5Dg-24" value="Match" style="swimlane;fontStyle=1;align=center;verticalAlign=top;childLayout=stackLayout;horizontal=1;startSize=26;horizontalStack=0;resizeParent=1;resizeParentMax=0;resizeLast=0;collapsible=1;marginBottom=0;whiteSpace=wrap;html=1;fillColor=#94FF66;" vertex="1" parent="WIyWlLk6GJQsqaUBKTNV-1">
          <mxGeometry x="480" y="610" width="160" height="458" as="geometry" />
        </mxCell>
        <mxCell id="vUJ9j087HEOIc25sZ5Dg-91" value="- Tirreur tirreur1" style="text;strokeColor=none;fillColor=none;align=left;verticalAlign=top;spacingLeft=4;spacingRight=4;overflow=hidden;rotatable=0;points=[[0,0.5],[1,0.5]];portConstraint=eastwest;whiteSpace=wrap;html=1;" vertex="1" parent="vUJ9j087HEOIc25sZ5Dg-24">
          <mxGeometry y="26" width="160" height="26" as="geometry" />
        </mxCell>
        <mxCell id="vUJ9j087HEOIc25sZ5Dg-92" value="- Tirreur tirreur2" style="text;strokeColor=none;fillColor=none;align=left;verticalAlign=top;spacingLeft=4;spacingRight=4;overflow=hidden;rotatable=0;points=[[0,0.5],[1,0.5]];portConstraint=eastwest;whiteSpace=wrap;html=1;" vertex="1" parent="vUJ9j087HEOIc25sZ5Dg-24">
          <mxGeometry y="52" width="160" height="26" as="geometry" />
        </mxCell>
        <mxCell id="vUJ9j087HEOIc25sZ5Dg-25" value="- Statut statut" style="text;strokeColor=none;fillColor=none;align=left;verticalAlign=top;spacingLeft=4;spacingRight=4;overflow=hidden;rotatable=0;points=[[0,0.5],[1,0.5]];portConstraint=eastwest;whiteSpace=wrap;html=1;" vertex="1" parent="vUJ9j087HEOIc25sZ5Dg-24">
          <mxGeometry y="78" width="160" height="26" as="geometry" />
        </mxCell>
        <mxCell id="vUJ9j087HEOIc25sZ5Dg-89" value="- Arbitre arbitre" style="text;strokeColor=none;fillColor=none;align=left;verticalAlign=top;spacingLeft=4;spacingRight=4;overflow=hidden;rotatable=0;points=[[0,0.5],[1,0.5]];portConstraint=eastwest;whiteSpace=wrap;html=1;" vertex="1" parent="vUJ9j087HEOIc25sZ5Dg-24">
          <mxGeometry y="104" width="160" height="26" as="geometry" />
        </mxCell>
        <mxCell id="vUJ9j087HEOIc25sZ5Dg-84" value="- Resultat resultat" style="text;strokeColor=none;fillColor=none;align=left;verticalAlign=top;spacingLeft=4;spacingRight=4;overflow=hidden;rotatable=0;points=[[0,0.5],[1,0.5]];portConstraint=eastwest;whiteSpace=wrap;html=1;" vertex="1" parent="vUJ9j087HEOIc25sZ5Dg-24">
          <mxGeometry y="130" width="160" height="26" as="geometry" />
        </mxCell>
        <mxCell id="vUJ9j087HEOIc25sZ5Dg-26" value="" style="line;strokeWidth=1;fillColor=none;align=left;verticalAlign=middle;spacingTop=-1;spacingLeft=3;spacingRight=3;rotatable=0;labelPosition=right;points=[];portConstraint=eastwest;strokeColor=inherit;" vertex="1" parent="vUJ9j087HEOIc25sZ5Dg-24">
          <mxGeometry y="156" width="160" height="8" as="geometry" />
        </mxCell>
        <mxCell id="vUJ9j087HEOIc25sZ5Dg-96" value="+ Tirreur Tirreur1 {get}" style="text;strokeColor=none;fillColor=none;align=left;verticalAlign=top;spacingLeft=4;spacingRight=4;overflow=hidden;rotatable=0;points=[[0,0.5],[1,0.5]];portConstraint=eastwest;whiteSpace=wrap;html=1;" vertex="1" parent="vUJ9j087HEOIc25sZ5Dg-24">
          <mxGeometry y="164" width="160" height="26" as="geometry" />
        </mxCell>
        <mxCell id="vUJ9j087HEOIc25sZ5Dg-97" value="+ Tirreur Tirreur2 {get}" style="text;strokeColor=none;fillColor=none;align=left;verticalAlign=top;spacingLeft=4;spacingRight=4;overflow=hidden;rotatable=0;points=[[0,0.5],[1,0.5]];portConstraint=eastwest;whiteSpace=wrap;html=1;" vertex="1" parent="vUJ9j087HEOIc25sZ5Dg-24">
          <mxGeometry y="190" width="160" height="26" as="geometry" />
        </mxCell>
        <mxCell id="vUJ9j087HEOIc25sZ5Dg-98" value="+ Statut Statut {get}" style="text;strokeColor=none;fillColor=none;align=left;verticalAlign=top;spacingLeft=4;spacingRight=4;overflow=hidden;rotatable=0;points=[[0,0.5],[1,0.5]];portConstraint=eastwest;whiteSpace=wrap;html=1;" vertex="1" parent="vUJ9j087HEOIc25sZ5Dg-24">
          <mxGeometry y="216" width="160" height="26" as="geometry" />
        </mxCell>
        <mxCell id="vUJ9j087HEOIc25sZ5Dg-99" value="+ Arbitre Arbitre {get}" style="text;strokeColor=none;fillColor=none;align=left;verticalAlign=top;spacingLeft=4;spacingRight=4;overflow=hidden;rotatable=0;points=[[0,0.5],[1,0.5]];portConstraint=eastwest;whiteSpace=wrap;html=1;" vertex="1" parent="vUJ9j087HEOIc25sZ5Dg-24">
          <mxGeometry y="242" width="160" height="26" as="geometry" />
        </mxCell>
        <mxCell id="vUJ9j087HEOIc25sZ5Dg-100" value="+ Resultat Resultat {get}" style="text;strokeColor=none;fillColor=none;align=left;verticalAlign=top;spacingLeft=4;spacingRight=4;overflow=hidden;rotatable=0;points=[[0,0.5],[1,0.5]];portConstraint=eastwest;whiteSpace=wrap;html=1;" vertex="1" parent="vUJ9j087HEOIc25sZ5Dg-24">
          <mxGeometry y="268" width="160" height="26" as="geometry" />
        </mxCell>
        <mxCell id="vUJ9j087HEOIc25sZ5Dg-28" value="" style="line;strokeWidth=1;fillColor=none;align=left;verticalAlign=middle;spacingTop=-1;spacingLeft=3;spacingRight=3;rotatable=0;labelPosition=right;points=[];portConstraint=eastwest;strokeColor=inherit;" vertex="1" parent="vUJ9j087HEOIc25sZ5Dg-24">
          <mxGeometry y="294" width="160" height="8" as="geometry" />
        </mxCell>
        <mxCell id="vUJ9j087HEOIc25sZ5Dg-93" value="+ O ToString():string" style="text;strokeColor=none;fillColor=none;align=left;verticalAlign=top;spacingLeft=4;spacingRight=4;overflow=hidden;rotatable=0;points=[[0,0.5],[1,0.5]];portConstraint=eastwest;whiteSpace=wrap;html=1;" vertex="1" parent="vUJ9j087HEOIc25sZ5Dg-24">
          <mxGeometry y="302" width="160" height="26" as="geometry" />
        </mxCell>
        <mxCell id="vUJ9j087HEOIc25sZ5Dg-113" value="+ LancerMatch()" style="text;strokeColor=none;fillColor=none;align=left;verticalAlign=top;spacingLeft=4;spacingRight=4;overflow=hidden;rotatable=0;points=[[0,0.5],[1,0.5]];portConstraint=eastwest;whiteSpace=wrap;html=1;" vertex="1" parent="vUJ9j087HEOIc25sZ5Dg-24">
          <mxGeometry y="328" width="160" height="26" as="geometry" />
        </mxCell>
        <mxCell id="vUJ9j087HEOIc25sZ5Dg-114" value="+ InterompreMatch()" style="text;strokeColor=none;fillColor=none;align=left;verticalAlign=top;spacingLeft=4;spacingRight=4;overflow=hidden;rotatable=0;points=[[0,0.5],[1,0.5]];portConstraint=eastwest;whiteSpace=wrap;html=1;" vertex="1" parent="vUJ9j087HEOIc25sZ5Dg-24">
          <mxGeometry y="354" width="160" height="26" as="geometry" />
        </mxCell>
        <mxCell id="vUJ9j087HEOIc25sZ5Dg-115" value="+ ReLancerMatch()" style="text;strokeColor=none;fillColor=none;align=left;verticalAlign=top;spacingLeft=4;spacingRight=4;overflow=hidden;rotatable=0;points=[[0,0.5],[1,0.5]];portConstraint=eastwest;whiteSpace=wrap;html=1;" vertex="1" parent="vUJ9j087HEOIc25sZ5Dg-24">
          <mxGeometry y="380" width="160" height="26" as="geometry" />
        </mxCell>
        <mxCell id="vUJ9j087HEOIc25sZ5Dg-116" value="+ FaireDuel()" style="text;strokeColor=none;fillColor=none;align=left;verticalAlign=top;spacingLeft=4;spacingRight=4;overflow=hidden;rotatable=0;points=[[0,0.5],[1,0.5]];portConstraint=eastwest;whiteSpace=wrap;html=1;" vertex="1" parent="vUJ9j087HEOIc25sZ5Dg-24">
          <mxGeometry y="406" width="160" height="26" as="geometry" />
        </mxCell>
        <mxCell id="vUJ9j087HEOIc25sZ5Dg-120" value="+ CloreMatch()" style="text;strokeColor=none;fillColor=none;align=left;verticalAlign=top;spacingLeft=4;spacingRight=4;overflow=hidden;rotatable=0;points=[[0,0.5],[1,0.5]];portConstraint=eastwest;whiteSpace=wrap;html=1;" vertex="1" parent="vUJ9j087HEOIc25sZ5Dg-24">
          <mxGeometry y="432" width="160" height="26" as="geometry" />
        </mxCell>
        <mxCell id="vUJ9j087HEOIc25sZ5Dg-33" value="Resultat" style="swimlane;fontStyle=1;align=center;verticalAlign=top;childLayout=stackLayout;horizontal=1;startSize=26;horizontalStack=0;resizeParent=1;resizeParentMax=0;resizeLast=0;collapsible=1;marginBottom=0;whiteSpace=wrap;html=1;" vertex="1" parent="WIyWlLk6GJQsqaUBKTNV-1">
          <mxGeometry x="654" y="739" width="173" height="224" as="geometry" />
        </mxCell>
        <mxCell id="vUJ9j087HEOIc25sZ5Dg-86" value="- byte[,] score" style="text;strokeColor=none;fillColor=none;align=left;verticalAlign=top;spacingLeft=4;spacingRight=4;overflow=hidden;rotatable=0;points=[[0,0.5],[1,0.5]];portConstraint=eastwest;whiteSpace=wrap;html=1;" vertex="1" parent="vUJ9j087HEOIc25sZ5Dg-33">
          <mxGeometry y="26" width="173" height="26" as="geometry" />
        </mxCell>
        <mxCell id="vUJ9j087HEOIc25sZ5Dg-142" value="- bool victoireT1" style="text;strokeColor=none;fillColor=none;align=left;verticalAlign=top;spacingLeft=4;spacingRight=4;overflow=hidden;rotatable=0;points=[[0,0.5],[1,0.5]];portConstraint=eastwest;whiteSpace=wrap;html=1;" vertex="1" parent="vUJ9j087HEOIc25sZ5Dg-33">
          <mxGeometry y="52" width="173" height="26" as="geometry" />
        </mxCell>
        <mxCell id="vUJ9j087HEOIc25sZ5Dg-35" value="" style="line;strokeWidth=1;fillColor=none;align=left;verticalAlign=middle;spacingTop=-1;spacingLeft=3;spacingRight=3;rotatable=0;labelPosition=right;points=[];portConstraint=eastwest;strokeColor=inherit;" vertex="1" parent="vUJ9j087HEOIc25sZ5Dg-33">
          <mxGeometry y="78" width="173" height="8" as="geometry" />
        </mxCell>
        <mxCell id="vUJ9j087HEOIc25sZ5Dg-101" value="+ byte[,] Score {get}&amp;nbsp;&lt;span style=&quot;color: rgba(0, 0, 0, 0); font-family: monospace; font-size: 0px; text-wrap: nowrap;&quot;&gt;%3CmxGraphModel%3E%3Croot%3E%3CmxCell%20id%3D%220%22%2F%3E%3CmxCell%20id%3D%221%22%20parent%3D%220%22%2F%3E%3CmxCell%20id%3D%222%22%20value%3D%22-%20byte%5B%2C%5D%20score%22%20style%3D%22text%3BstrokeColor%3Dnone%3BfillColor%3Dnone%3Balign%3Dleft%3BverticalAlign%3Dtop%3BspacingLeft%3D4%3BspacingRight%3D4%3Boverflow%3Dhidden%3Brotatable%3D0%3Bpoints%3D%5B%5B0%2C0.5%5D%2C%5B1%2C0.5%5D%5D%3BportConstraint%3Deastwest%3BwhiteSpace%3Dwrap%3Bhtml%3D1%3B%22%20vertex%3D%221%22%20parent%3D%221%22%3E%3CmxGeometry%20x%3D%22827%22%20y%3D%22538%22%20width%3D%22160%22%20height%3D%2226%22%20as%3D%22geometry%22%2F%3E%3C%2FmxCell%3E%3CmxCell%20id%3D%223%22%20value%3D%22-%20Arbitre%20arbitre%22%20style%3D%22text%3BstrokeColor%3Dnone%3BfillColor%3Dnone%3Balign%3Dleft%3BverticalAlign%3Dtop%3BspacingLeft%3D4%3BspacingRight%3D4%3Boverflow%3Dhidden%3Brotatable%3D0%3Bpoints%3D%5B%5B0%2C0.5%5D%2C%5B1%2C0.5%5D%5D%3BportConstraint%3Deastwest%3BwhiteSpace%3Dwrap%3Bhtml%3D1%3B%22%20vertex%3D%221%22%20parent%3D%221%22%3E%3CmxGeometry%20x%3D%22827%22%20y%3D%22564%22%20width%3D%22160%22%20height%3D%2226%22%20as%3D%22geometry%22%2F%3E%3C%2FmxCell%3E%3C%2Froot%3E%3C%2FmxGraphModel%3E&lt;/span&gt;&lt;span style=&quot;color: rgba(0, 0, 0, 0); font-family: monospace; font-size: 0px; text-wrap: nowrap;&quot;&gt;D%220%22%2F%3E%3CmxCell%20id%3D%221%22%20parent%3D%220%22%2F%3E%3CmxCell%20id%3D%222%22%20value%3D%22-%20byte%5B%2C%5D%20score%22%20style%3D%22text%3BstrokeColor%3Dnone%3BfillColor%3Dnone%3Balign%3Dleft%3BverticalAlign%3Dtop%3BspacingLeft%3D4%3BspacingRight%3D4%3Boverflow%3Dhidden%3Brotatable%3D0%3Bpoints%3D%5B%5B0%2C0.5%5D%2C%5B1%2C0.5%5D%5D%3BportConstraint%3Deastwest%3BwhiteSpace%3Dwrap%3Bhtml%3D1%3B%22%20vertex%3D%221%22%20parent%3D%221%22%3E%3CmxGeometry%20x%3D%22827%22%20y%3D%22538%22%20width%3D%22160%22%20height%3D%2226%22%20as%3D%22geometry%22%2F%3E%3C%2FmxCell%3E%3CmxCell%20id%3D%223%22%20value%3D%22-%20Arbitre%20arbitre%22%20style%3D%22text%3BstrokeColor%3Dnone%3BfillColor%3Dnone%3Balign%3Dleft%3BverticalAlign%3Dtop%3BspacingLeft%3D4%3BspacingRight%3D4%3Boverflow%3Dhidden%3Brotatable%3D0%3Bpoints%3D%5B%5B0%2C0.5%5D%2C%5B1%2C0.5%5D%5D%3BportConstraint%3Deastwest%3BwhiteSpace%3Dwrap%3Bhtml%3D1%3B%22%20vertex%3D%221%22%20parent%3D%221%22%3E%3CmxGeometry%20x%3D%22827%22%20y%3D%22564%22%20width%3D%22160%22%20height%3D%2226%22%20as%3D%22geometry%22%2F%3E%3C%2FmxCell%3E%3C%2Froot%3E%3C%2FmxGraphModel%3E{&lt;/span&gt;" style="text;strokeColor=none;fillColor=none;align=left;verticalAlign=top;spacingLeft=4;spacingRight=4;overflow=hidden;rotatable=0;points=[[0,0.5],[1,0.5]];portConstraint=eastwest;whiteSpace=wrap;html=1;" vertex="1" parent="vUJ9j087HEOIc25sZ5Dg-33">
          <mxGeometry y="86" width="173" height="26" as="geometry" />
        </mxCell>
        <mxCell id="vUJ9j087HEOIc25sZ5Dg-143" value="- bool VictoireT1 {get}" style="text;strokeColor=none;fillColor=none;align=left;verticalAlign=top;spacingLeft=4;spacingRight=4;overflow=hidden;rotatable=0;points=[[0,0.5],[1,0.5]];portConstraint=eastwest;whiteSpace=wrap;html=1;" vertex="1" parent="vUJ9j087HEOIc25sZ5Dg-33">
          <mxGeometry y="112" width="173" height="26" as="geometry" />
        </mxCell>
        <mxCell id="vUJ9j087HEOIc25sZ5Dg-37" value="" style="line;strokeWidth=1;fillColor=none;align=left;verticalAlign=middle;spacingTop=-1;spacingLeft=3;spacingRight=3;rotatable=0;labelPosition=right;points=[];portConstraint=eastwest;strokeColor=inherit;" vertex="1" parent="vUJ9j087HEOIc25sZ5Dg-33">
          <mxGeometry y="138" width="173" height="8" as="geometry" />
        </mxCell>
        <mxCell id="vUJ9j087HEOIc25sZ5Dg-69" value="+ O ToString(): string" style="text;strokeColor=none;fillColor=none;align=left;verticalAlign=top;spacingLeft=4;spacingRight=4;overflow=hidden;rotatable=0;points=[[0,0.5],[1,0.5]];portConstraint=eastwest;whiteSpace=wrap;html=1;" vertex="1" parent="vUJ9j087HEOIc25sZ5Dg-33">
          <mxGeometry y="146" width="173" height="26" as="geometry" />
        </mxCell>
        <mxCell id="vUJ9j087HEOIc25sZ5Dg-144" value="+ AddScore(byte[,] touches)" style="text;strokeColor=none;fillColor=none;align=left;verticalAlign=top;spacingLeft=4;spacingRight=4;overflow=hidden;rotatable=0;points=[[0,0.5],[1,0.5]];portConstraint=eastwest;whiteSpace=wrap;html=1;" vertex="1" parent="vUJ9j087HEOIc25sZ5Dg-33">
          <mxGeometry y="172" width="173" height="26" as="geometry" />
        </mxCell>
        <mxCell id="vUJ9j087HEOIc25sZ5Dg-145" value="+ SetVictoireT1(bool gagner)" style="text;strokeColor=none;fillColor=none;align=left;verticalAlign=top;spacingLeft=4;spacingRight=4;overflow=hidden;rotatable=0;points=[[0,0.5],[1,0.5]];portConstraint=eastwest;whiteSpace=wrap;html=1;" vertex="1" parent="vUJ9j087HEOIc25sZ5Dg-33">
          <mxGeometry y="198" width="173" height="26" as="geometry" />
        </mxCell>
        <mxCell id="vUJ9j087HEOIc25sZ5Dg-46" value="classement de tout les tirreur dans le tableau tirreurs et defini classer en true" style="text;html=1;align=center;verticalAlign=middle;whiteSpace=wrap;rounded=0;" vertex="1" parent="WIyWlLk6GJQsqaUBKTNV-1">
          <mxGeometry x="70" y="810" width="130" height="30" as="geometry" />
        </mxCell>
        <mxCell id="vUJ9j087HEOIc25sZ5Dg-48" value="renvoie un string avec tout les matchs" style="text;html=1;align=center;verticalAlign=middle;whiteSpace=wrap;rounded=0;" vertex="1" parent="WIyWlLk6GJQsqaUBKTNV-1">
          <mxGeometry y="663" width="130" height="30" as="geometry" />
        </mxCell>
        <mxCell id="vUJ9j087HEOIc25sZ5Dg-49" value="creez tout les match et les met dans la class matchs" style="text;html=1;align=center;verticalAlign=middle;whiteSpace=wrap;rounded=0;" vertex="1" parent="WIyWlLk6GJQsqaUBKTNV-1">
          <mxGeometry y="608" width="130" height="30" as="geometry" />
        </mxCell>
        <mxCell id="vUJ9j087HEOIc25sZ5Dg-50" style="edgeStyle=orthogonalEdgeStyle;rounded=0;orthogonalLoop=1;jettySize=auto;html=1;exitX=0;exitY=0.5;exitDx=0;exitDy=0;" edge="1" parent="WIyWlLk6GJQsqaUBKTNV-1" source="vUJ9j087HEOIc25sZ5Dg-5" target="vUJ9j087HEOIc25sZ5Dg-49">
          <mxGeometry relative="1" as="geometry" />
        </mxCell>
        <mxCell id="vUJ9j087HEOIc25sZ5Dg-51" style="edgeStyle=orthogonalEdgeStyle;rounded=0;orthogonalLoop=1;jettySize=auto;html=1;exitX=0;exitY=0.5;exitDx=0;exitDy=0;" edge="1" parent="WIyWlLk6GJQsqaUBKTNV-1" source="vUJ9j087HEOIc25sZ5Dg-32" target="vUJ9j087HEOIc25sZ5Dg-48">
          <mxGeometry relative="1" as="geometry" />
        </mxCell>
        <mxCell id="vUJ9j087HEOIc25sZ5Dg-54" value="Performance" style="swimlane;fontStyle=1;align=center;verticalAlign=top;childLayout=stackLayout;horizontal=1;startSize=26;horizontalStack=0;resizeParent=1;resizeParentMax=0;resizeLast=0;collapsible=1;marginBottom=0;whiteSpace=wrap;html=1;fillColor=#1ba1e2;fontColor=#ffffff;strokeColor=#006EAF;" vertex="1" parent="WIyWlLk6GJQsqaUBKTNV-1">
          <mxGeometry x="480" y="317" width="200" height="276" as="geometry" />
        </mxCell>
        <mxCell id="vUJ9j087HEOIc25sZ5Dg-72" value="- Tirreur tirreur" style="text;strokeColor=none;fillColor=none;align=left;verticalAlign=top;spacingLeft=4;spacingRight=4;overflow=hidden;rotatable=0;points=[[0,0.5],[1,0.5]];portConstraint=eastwest;whiteSpace=wrap;html=1;" vertex="1" parent="vUJ9j087HEOIc25sZ5Dg-54">
          <mxGeometry y="26" width="200" height="26" as="geometry" />
        </mxCell>
        <mxCell id="vUJ9j087HEOIc25sZ5Dg-62" value="- byte nbVictoire" style="text;strokeColor=none;fillColor=none;align=left;verticalAlign=top;spacingLeft=4;spacingRight=4;overflow=hidden;rotatable=0;points=[[0,0.5],[1,0.5]];portConstraint=eastwest;whiteSpace=wrap;html=1;" vertex="1" parent="vUJ9j087HEOIc25sZ5Dg-54">
          <mxGeometry y="52" width="200" height="26" as="geometry" />
        </mxCell>
        <mxCell id="vUJ9j087HEOIc25sZ5Dg-55" value="- float indicePerformance" style="text;strokeColor=none;fillColor=none;align=left;verticalAlign=top;spacingLeft=4;spacingRight=4;overflow=hidden;rotatable=0;points=[[0,0.5],[1,0.5]];portConstraint=eastwest;whiteSpace=wrap;html=1;" vertex="1" parent="vUJ9j087HEOIc25sZ5Dg-54">
          <mxGeometry y="78" width="200" height="26" as="geometry" />
        </mxCell>
        <mxCell id="vUJ9j087HEOIc25sZ5Dg-63" value="- float pourventageVictoire" style="text;strokeColor=none;fillColor=none;align=left;verticalAlign=top;spacingLeft=4;spacingRight=4;overflow=hidden;rotatable=0;points=[[0,0.5],[1,0.5]];portConstraint=eastwest;whiteSpace=wrap;html=1;" vertex="1" parent="vUJ9j087HEOIc25sZ5Dg-54">
          <mxGeometry y="104" width="200" height="26" as="geometry" />
        </mxCell>
        <mxCell id="vUJ9j087HEOIc25sZ5Dg-56" value="" style="line;strokeWidth=1;fillColor=none;align=left;verticalAlign=middle;spacingTop=-1;spacingLeft=3;spacingRight=3;rotatable=0;labelPosition=right;points=[];portConstraint=eastwest;strokeColor=inherit;" vertex="1" parent="vUJ9j087HEOIc25sZ5Dg-54">
          <mxGeometry y="130" width="200" height="8" as="geometry" />
        </mxCell>
        <mxCell id="vUJ9j087HEOIc25sZ5Dg-73" value="+ Tirreur Tirreur {get}" style="text;strokeColor=none;fillColor=none;align=left;verticalAlign=top;spacingLeft=4;spacingRight=4;overflow=hidden;rotatable=0;points=[[0,0.5],[1,0.5]];portConstraint=eastwest;whiteSpace=wrap;html=1;" vertex="1" parent="vUJ9j087HEOIc25sZ5Dg-54">
          <mxGeometry y="138" width="200" height="26" as="geometry" />
        </mxCell>
        <mxCell id="vUJ9j087HEOIc25sZ5Dg-64" value="+ byte&amp;nbsp;NbVictoire {get}" style="text;strokeColor=none;fillColor=none;align=left;verticalAlign=top;spacingLeft=4;spacingRight=4;overflow=hidden;rotatable=0;points=[[0,0.5],[1,0.5]];portConstraint=eastwest;whiteSpace=wrap;html=1;" vertex="1" parent="vUJ9j087HEOIc25sZ5Dg-54">
          <mxGeometry y="164" width="200" height="26" as="geometry" />
        </mxCell>
        <mxCell id="vUJ9j087HEOIc25sZ5Dg-66" value="+ float PourventageVictoire {get}" style="text;strokeColor=none;fillColor=none;align=left;verticalAlign=top;spacingLeft=4;spacingRight=4;overflow=hidden;rotatable=0;points=[[0,0.5],[1,0.5]];portConstraint=eastwest;whiteSpace=wrap;html=1;" vertex="1" parent="vUJ9j087HEOIc25sZ5Dg-54">
          <mxGeometry y="190" width="200" height="26" as="geometry" />
        </mxCell>
        <mxCell id="vUJ9j087HEOIc25sZ5Dg-65" value="+ float IndicePerformance {get}" style="text;strokeColor=none;fillColor=none;align=left;verticalAlign=top;spacingLeft=4;spacingRight=4;overflow=hidden;rotatable=0;points=[[0,0.5],[1,0.5]];portConstraint=eastwest;whiteSpace=wrap;html=1;" vertex="1" parent="vUJ9j087HEOIc25sZ5Dg-54">
          <mxGeometry y="216" width="200" height="26" as="geometry" />
        </mxCell>
        <mxCell id="vUJ9j087HEOIc25sZ5Dg-58" value="" style="line;strokeWidth=1;fillColor=none;align=left;verticalAlign=middle;spacingTop=-1;spacingLeft=3;spacingRight=3;rotatable=0;labelPosition=right;points=[];portConstraint=eastwest;strokeColor=inherit;" vertex="1" parent="vUJ9j087HEOIc25sZ5Dg-54">
          <mxGeometry y="242" width="200" height="8" as="geometry" />
        </mxCell>
        <mxCell id="vUJ9j087HEOIc25sZ5Dg-67" value="+ O ToString():string" style="text;strokeColor=none;fillColor=none;align=left;verticalAlign=top;spacingLeft=4;spacingRight=4;overflow=hidden;rotatable=0;points=[[0,0.5],[1,0.5]];portConstraint=eastwest;whiteSpace=wrap;html=1;" vertex="1" parent="vUJ9j087HEOIc25sZ5Dg-54">
          <mxGeometry y="250" width="200" height="26" as="geometry" />
        </mxCell>
        <mxCell id="vUJ9j087HEOIc25sZ5Dg-74" value="enum Statut" style="swimlane;fontStyle=1;align=center;verticalAlign=top;childLayout=stackLayout;horizontal=1;startSize=26;horizontalStack=0;resizeParent=1;resizeParentMax=0;resizeLast=0;collapsible=1;marginBottom=0;whiteSpace=wrap;html=1;" vertex="1" parent="WIyWlLk6GJQsqaUBKTNV-1">
          <mxGeometry x="667" y="600" width="160" height="130" as="geometry" />
        </mxCell>
        <mxCell id="vUJ9j087HEOIc25sZ5Dg-80" value="en attente" style="text;strokeColor=none;fillColor=none;align=left;verticalAlign=top;spacingLeft=4;spacingRight=4;overflow=hidden;rotatable=0;points=[[0,0.5],[1,0.5]];portConstraint=eastwest;whiteSpace=wrap;html=1;" vertex="1" parent="vUJ9j087HEOIc25sZ5Dg-74">
          <mxGeometry y="26" width="160" height="26" as="geometry" />
        </mxCell>
        <mxCell id="vUJ9j087HEOIc25sZ5Dg-81" value="en cour" style="text;strokeColor=none;fillColor=none;align=left;verticalAlign=top;spacingLeft=4;spacingRight=4;overflow=hidden;rotatable=0;points=[[0,0.5],[1,0.5]];portConstraint=eastwest;whiteSpace=wrap;html=1;" vertex="1" parent="vUJ9j087HEOIc25sZ5Dg-74">
          <mxGeometry y="52" width="160" height="26" as="geometry" />
        </mxCell>
        <mxCell id="vUJ9j087HEOIc25sZ5Dg-82" value="terminé" style="text;strokeColor=none;fillColor=none;align=left;verticalAlign=top;spacingLeft=4;spacingRight=4;overflow=hidden;rotatable=0;points=[[0,0.5],[1,0.5]];portConstraint=eastwest;whiteSpace=wrap;html=1;" vertex="1" parent="vUJ9j087HEOIc25sZ5Dg-74">
          <mxGeometry y="78" width="160" height="26" as="geometry" />
        </mxCell>
        <mxCell id="vUJ9j087HEOIc25sZ5Dg-83" value="interrompu" style="text;strokeColor=none;fillColor=none;align=left;verticalAlign=top;spacingLeft=4;spacingRight=4;overflow=hidden;rotatable=0;points=[[0,0.5],[1,0.5]];portConstraint=eastwest;whiteSpace=wrap;html=1;" vertex="1" parent="vUJ9j087HEOIc25sZ5Dg-74">
          <mxGeometry y="104" width="160" height="26" as="geometry" />
        </mxCell>
        <mxCell id="vUJ9j087HEOIc25sZ5Dg-94" value="affiche la pool au complet" style="text;html=1;align=center;verticalAlign=middle;whiteSpace=wrap;rounded=0;" vertex="1" parent="WIyWlLk6GJQsqaUBKTNV-1">
          <mxGeometry x="10" y="530" width="130" height="30" as="geometry" />
        </mxCell>
        <mxCell id="vUJ9j087HEOIc25sZ5Dg-95" style="edgeStyle=orthogonalEdgeStyle;rounded=0;orthogonalLoop=1;jettySize=auto;html=1;exitX=0;exitY=0.5;exitDx=0;exitDy=0;" edge="1" parent="WIyWlLk6GJQsqaUBKTNV-1" source="vUJ9j087HEOIc25sZ5Dg-68" target="vUJ9j087HEOIc25sZ5Dg-94">
          <mxGeometry relative="1" as="geometry">
            <Array as="points">
              <mxPoint x="150" y="625" />
              <mxPoint x="150" y="550" />
            </Array>
          </mxGeometry>
        </mxCell>
        <mxCell id="vUJ9j087HEOIc25sZ5Dg-47" value="calcule les performances et les stock dans performances" style="text;html=1;align=center;verticalAlign=middle;whiteSpace=wrap;rounded=0;" vertex="1" parent="WIyWlLk6GJQsqaUBKTNV-1">
          <mxGeometry y="730" width="130" height="30" as="geometry" />
        </mxCell>
        <mxCell id="vUJ9j087HEOIc25sZ5Dg-110" style="edgeStyle=orthogonalEdgeStyle;rounded=0;orthogonalLoop=1;jettySize=auto;html=1;exitX=0;exitY=0.5;exitDx=0;exitDy=0;" edge="1" parent="WIyWlLk6GJQsqaUBKTNV-1" source="vUJ9j087HEOIc25sZ5Dg-39" target="vUJ9j087HEOIc25sZ5Dg-47">
          <mxGeometry relative="1" as="geometry">
            <Array as="points">
              <mxPoint x="20" y="703" />
            </Array>
          </mxGeometry>
        </mxCell>
        <mxCell id="vUJ9j087HEOIc25sZ5Dg-111" style="edgeStyle=orthogonalEdgeStyle;rounded=0;orthogonalLoop=1;jettySize=auto;html=1;exitX=0;exitY=0.5;exitDx=0;exitDy=0;" edge="1" parent="WIyWlLk6GJQsqaUBKTNV-1" source="vUJ9j087HEOIc25sZ5Dg-40" target="vUJ9j087HEOIc25sZ5Dg-46">
          <mxGeometry relative="1" as="geometry" />
        </mxCell>
        <mxCell id="vUJ9j087HEOIc25sZ5Dg-118" value="fait abandonner le tirreur" style="text;html=1;align=center;verticalAlign=middle;whiteSpace=wrap;rounded=0;" vertex="1" parent="WIyWlLk6GJQsqaUBKTNV-1">
          <mxGeometry x="640" y="275" width="150" height="30" as="geometry" />
        </mxCell>
        <mxCell id="vUJ9j087HEOIc25sZ5Dg-119" style="edgeStyle=orthogonalEdgeStyle;rounded=0;orthogonalLoop=1;jettySize=auto;html=1;exitX=1;exitY=0.5;exitDx=0;exitDy=0;" edge="1" parent="WIyWlLk6GJQsqaUBKTNV-1" source="vUJ9j087HEOIc25sZ5Dg-117" target="vUJ9j087HEOIc25sZ5Dg-118">
          <mxGeometry relative="1" as="geometry" />
        </mxCell>
        <mxCell id="vUJ9j087HEOIc25sZ5Dg-122" style="edgeStyle=orthogonalEdgeStyle;rounded=0;orthogonalLoop=1;jettySize=auto;html=1;exitX=1;exitY=0.5;exitDx=0;exitDy=0;entryX=-0.003;entryY=0.027;entryDx=0;entryDy=0;entryPerimeter=0;endArrow=none;endFill=0;startArrow=diamondThin;startFill=0;endSize=12;startSize=12;fillColor=#6a00ff;strokeColor=#94ff66;" edge="1" parent="WIyWlLk6GJQsqaUBKTNV-1" source="vUJ9j087HEOIc25sZ5Dg-1" target="vUJ9j087HEOIc25sZ5Dg-24">
          <mxGeometry relative="1" as="geometry">
            <Array as="points">
              <mxPoint x="440" y="401" />
              <mxPoint x="440" y="622" />
            </Array>
          </mxGeometry>
        </mxCell>
        <mxCell id="vUJ9j087HEOIc25sZ5Dg-124" style="edgeStyle=orthogonalEdgeStyle;rounded=0;orthogonalLoop=1;jettySize=auto;html=1;exitX=1;exitY=0.5;exitDx=0;exitDy=0;entryX=1.003;entryY=0.088;entryDx=0;entryDy=0;entryPerimeter=0;endArrow=none;endFill=0;startSize=12;startArrow=diamondThin;startFill=1;endSize=12;fillColor=#60a917;strokeColor=#2D7600;" edge="1" parent="WIyWlLk6GJQsqaUBKTNV-1" source="vUJ9j087HEOIc25sZ5Dg-31" target="vUJ9j087HEOIc25sZ5Dg-12">
          <mxGeometry relative="1" as="geometry" />
        </mxCell>
        <mxCell id="vUJ9j087HEOIc25sZ5Dg-125" style="edgeStyle=orthogonalEdgeStyle;rounded=0;orthogonalLoop=1;jettySize=auto;html=1;exitX=1;exitY=0.5;exitDx=0;exitDy=0;entryX=-0.004;entryY=0.075;entryDx=0;entryDy=0;entryPerimeter=0;startSize=12;endArrow=none;endFill=0;startArrow=diamondThin;startFill=1;fillColor=#d80073;strokeColor=#FF0000;" edge="1" parent="WIyWlLk6GJQsqaUBKTNV-1" source="vUJ9j087HEOIc25sZ5Dg-30" target="vUJ9j087HEOIc25sZ5Dg-18">
          <mxGeometry relative="1" as="geometry">
            <Array as="points">
              <mxPoint x="410" y="349" />
              <mxPoint x="410" y="170" />
            </Array>
          </mxGeometry>
        </mxCell>
        <mxCell id="vUJ9j087HEOIc25sZ5Dg-126" style="edgeStyle=orthogonalEdgeStyle;rounded=0;orthogonalLoop=1;jettySize=auto;html=1;exitX=1;exitY=0.5;exitDx=0;exitDy=0;entryX=0.021;entryY=0.054;entryDx=0;entryDy=0;entryPerimeter=0;endArrow=none;endFill=0;startArrow=diamondThin;startFill=1;startSize=12;fillColor=#1ba1e2;strokeColor=#006EAF;" edge="1" parent="WIyWlLk6GJQsqaUBKTNV-1" source="vUJ9j087HEOIc25sZ5Dg-60" target="vUJ9j087HEOIc25sZ5Dg-54">
          <mxGeometry relative="1" as="geometry" />
        </mxCell>
        <mxCell id="vUJ9j087HEOIc25sZ5Dg-127" style="edgeStyle=orthogonalEdgeStyle;rounded=0;orthogonalLoop=1;jettySize=auto;html=1;exitX=0;exitY=0.5;exitDx=0;exitDy=0;entryX=0;entryY=0.075;entryDx=0;entryDy=0;entryPerimeter=0;endArrow=none;endFill=0;startArrow=diamondThin;startFill=1;startSize=12;fillColor=#d80073;strokeColor=#FF0000;" edge="1" parent="WIyWlLk6GJQsqaUBKTNV-1" source="vUJ9j087HEOIc25sZ5Dg-72" target="vUJ9j087HEOIc25sZ5Dg-18">
          <mxGeometry relative="1" as="geometry">
            <Array as="points">
              <mxPoint x="410" y="356" />
              <mxPoint x="410" y="170" />
            </Array>
          </mxGeometry>
        </mxCell>
        <mxCell id="vUJ9j087HEOIc25sZ5Dg-128" style="edgeStyle=orthogonalEdgeStyle;rounded=0;orthogonalLoop=1;jettySize=auto;html=1;exitX=1;exitY=0.5;exitDx=0;exitDy=0;entryX=-0.015;entryY=0.121;entryDx=0;entryDy=0;entryPerimeter=0;endArrow=none;endFill=0;startArrow=diamondThin;startFill=1;startSize=12;" edge="1" parent="WIyWlLk6GJQsqaUBKTNV-1" source="vUJ9j087HEOIc25sZ5Dg-25" target="vUJ9j087HEOIc25sZ5Dg-74">
          <mxGeometry relative="1" as="geometry">
            <Array as="points">
              <mxPoint x="650" y="701" />
              <mxPoint x="650" y="616" />
            </Array>
          </mxGeometry>
        </mxCell>
        <mxCell id="vUJ9j087HEOIc25sZ5Dg-129" style="edgeStyle=orthogonalEdgeStyle;rounded=0;orthogonalLoop=1;jettySize=auto;html=1;exitX=1;exitY=0.5;exitDx=0;exitDy=0;entryX=-0.002;entryY=0.096;entryDx=0;entryDy=0;entryPerimeter=0;startSize=12;endArrow=none;endFill=0;startArrow=diamondThin;startFill=1;" edge="1" parent="WIyWlLk6GJQsqaUBKTNV-1" source="vUJ9j087HEOIc25sZ5Dg-84" target="vUJ9j087HEOIc25sZ5Dg-33">
          <mxGeometry relative="1" as="geometry">
            <Array as="points">
              <mxPoint x="654" y="753" />
            </Array>
          </mxGeometry>
        </mxCell>
        <mxCell id="vUJ9j087HEOIc25sZ5Dg-130" style="edgeStyle=orthogonalEdgeStyle;rounded=0;orthogonalLoop=1;jettySize=auto;html=1;exitX=0;exitY=0.5;exitDx=0;exitDy=0;entryX=0.997;entryY=0.07;entryDx=0;entryDy=0;entryPerimeter=0;endArrow=none;endFill=0;startArrow=diamondThin;startFill=1;startSize=12;fillColor=#60a917;strokeColor=#2D7600;" edge="1" parent="WIyWlLk6GJQsqaUBKTNV-1" source="vUJ9j087HEOIc25sZ5Dg-89" target="vUJ9j087HEOIc25sZ5Dg-12">
          <mxGeometry relative="1" as="geometry">
            <Array as="points">
              <mxPoint x="390" y="727" />
              <mxPoint x="390" y="170" />
              <mxPoint x="360" y="170" />
            </Array>
          </mxGeometry>
        </mxCell>
        <mxCell id="vUJ9j087HEOIc25sZ5Dg-131" style="edgeStyle=orthogonalEdgeStyle;rounded=0;orthogonalLoop=1;jettySize=auto;html=1;exitX=0;exitY=0.5;exitDx=0;exitDy=0;entryX=0.003;entryY=0.075;entryDx=0;entryDy=0;entryPerimeter=0;endArrow=none;endFill=0;startArrow=diamondThin;startFill=1;jumpSize=12;fillColor=#d80073;strokeColor=#FF0000;startSize=12;" edge="1" parent="WIyWlLk6GJQsqaUBKTNV-1" source="vUJ9j087HEOIc25sZ5Dg-92" target="vUJ9j087HEOIc25sZ5Dg-18">
          <mxGeometry relative="1" as="geometry">
            <Array as="points">
              <mxPoint x="410" y="675" />
              <mxPoint x="410" y="170" />
            </Array>
          </mxGeometry>
        </mxCell>
        <mxCell id="vUJ9j087HEOIc25sZ5Dg-132" value="lance la match et reset le resultat" style="text;html=1;align=center;verticalAlign=middle;whiteSpace=wrap;rounded=0;" vertex="1" parent="WIyWlLk6GJQsqaUBKTNV-1">
          <mxGeometry x="667" y="968" width="160" height="32" as="geometry" />
        </mxCell>
        <mxCell id="vUJ9j087HEOIc25sZ5Dg-133" value="interrompt le match" style="text;html=1;align=center;verticalAlign=middle;whiteSpace=wrap;rounded=0;" vertex="1" parent="WIyWlLk6GJQsqaUBKTNV-1">
          <mxGeometry x="660" y="1010" width="160" height="30" as="geometry" />
        </mxCell>
        <mxCell id="vUJ9j087HEOIc25sZ5Dg-134" value="lance la match sans reset les variable" style="text;html=1;align=center;verticalAlign=middle;whiteSpace=wrap;rounded=0;" vertex="1" parent="WIyWlLk6GJQsqaUBKTNV-1">
          <mxGeometry x="650" y="1050" width="160" height="30" as="geometry" />
        </mxCell>
        <mxCell id="vUJ9j087HEOIc25sZ5Dg-135" value="lance un duel et stock le resultat et si fini arret le match" style="text;html=1;align=center;verticalAlign=middle;whiteSpace=wrap;rounded=0;" vertex="1" parent="WIyWlLk6GJQsqaUBKTNV-1">
          <mxGeometry x="640" y="1130" width="160" height="30" as="geometry" />
        </mxCell>
        <mxCell id="vUJ9j087HEOIc25sZ5Dg-136" value="arret le match" style="text;html=1;align=center;verticalAlign=middle;whiteSpace=wrap;rounded=0;" vertex="1" parent="WIyWlLk6GJQsqaUBKTNV-1">
          <mxGeometry x="480" y="1130" width="160" height="30" as="geometry" />
        </mxCell>
        <mxCell id="vUJ9j087HEOIc25sZ5Dg-137" style="edgeStyle=orthogonalEdgeStyle;rounded=0;orthogonalLoop=1;jettySize=auto;html=1;exitX=1;exitY=0.5;exitDx=0;exitDy=0;" edge="1" parent="WIyWlLk6GJQsqaUBKTNV-1" source="vUJ9j087HEOIc25sZ5Dg-113" target="vUJ9j087HEOIc25sZ5Dg-132">
          <mxGeometry relative="1" as="geometry">
            <Array as="points">
              <mxPoint x="650" y="951" />
              <mxPoint x="650" y="980" />
            </Array>
          </mxGeometry>
        </mxCell>
        <mxCell id="vUJ9j087HEOIc25sZ5Dg-138" style="edgeStyle=orthogonalEdgeStyle;rounded=0;orthogonalLoop=1;jettySize=auto;html=1;exitX=1;exitY=0.5;exitDx=0;exitDy=0;" edge="1" parent="WIyWlLk6GJQsqaUBKTNV-1" source="vUJ9j087HEOIc25sZ5Dg-114" target="vUJ9j087HEOIc25sZ5Dg-133">
          <mxGeometry relative="1" as="geometry">
            <Array as="points">
              <mxPoint x="640" y="1000" />
              <mxPoint x="740" y="1000" />
            </Array>
          </mxGeometry>
        </mxCell>
        <mxCell id="vUJ9j087HEOIc25sZ5Dg-139" style="edgeStyle=orthogonalEdgeStyle;rounded=0;orthogonalLoop=1;jettySize=auto;html=1;exitX=1;exitY=0.5;exitDx=0;exitDy=0;" edge="1" parent="WIyWlLk6GJQsqaUBKTNV-1" source="vUJ9j087HEOIc25sZ5Dg-115" target="vUJ9j087HEOIc25sZ5Dg-134">
          <mxGeometry relative="1" as="geometry">
            <Array as="points">
              <mxPoint x="660" y="1003" />
              <mxPoint x="660" y="1040" />
              <mxPoint x="730" y="1040" />
            </Array>
          </mxGeometry>
        </mxCell>
        <mxCell id="vUJ9j087HEOIc25sZ5Dg-140" style="edgeStyle=orthogonalEdgeStyle;rounded=0;orthogonalLoop=1;jettySize=auto;html=1;exitX=1;exitY=0.5;exitDx=0;exitDy=0;" edge="1" parent="WIyWlLk6GJQsqaUBKTNV-1" source="vUJ9j087HEOIc25sZ5Dg-116" target="vUJ9j087HEOIc25sZ5Dg-135">
          <mxGeometry relative="1" as="geometry">
            <Array as="points">
              <mxPoint x="650" y="1029" />
              <mxPoint x="650" y="1090" />
              <mxPoint x="720" y="1090" />
            </Array>
          </mxGeometry>
        </mxCell>
        <mxCell id="vUJ9j087HEOIc25sZ5Dg-141" style="edgeStyle=orthogonalEdgeStyle;rounded=0;orthogonalLoop=1;jettySize=auto;html=1;exitX=1;exitY=0.5;exitDx=0;exitDy=0;" edge="1" parent="WIyWlLk6GJQsqaUBKTNV-1" source="vUJ9j087HEOIc25sZ5Dg-120" target="vUJ9j087HEOIc25sZ5Dg-136">
          <mxGeometry relative="1" as="geometry">
            <Array as="points">
              <mxPoint x="640" y="1099" />
              <mxPoint x="560" y="1099" />
            </Array>
          </mxGeometry>
        </mxCell>
      </root>
    </mxGraphModel>
  </diagram>
</mxfile>
